# xmcd
#
# Track frame offsets: 
#        150
#        18894
#        41217
#        80765
#        96579
#        132554
#        150282
#        172291
#        191452
#        235242
#        257700
#        271616
#        289425
#        299899
#        325115
#
# Disc length: 4683 seconds
#
# Revision: 0
# Processed by: cddbd v1.5.2PL0 Copyright (c) Steve Scherf et al.
# Submitted via: ExactAudioCopy v0.99pb3
#
DISCID=e512490f
DTITLE=Stevie Ray Vaughan - Golden Collection 2000
DYEAR=2000
DGENRE=Blues
TTITLE0=The Sky Is Crying
TTITLE1=Lenny
TTITLE2=Rivera Paradise
TTITLE3=Telephone Song
TTITLE4=Voodoo Chile (Slight Return)
TTITLE5=Chitlins Con Carne
TTITLE6=The Things (That) I Used To Do
TTITLE7=Leave My Girl Alone
TTITLE8=Texas Flood (Video Version)
TTITLE9=Dirty Pool
TTITLE10=Gone Home
TTITLE11=Change It
TTITLE12=Travis Walk
TTITLE13=Wall Of Denial
TTITLE14=My I Have A Talk Whit You
EXTD=
EXTT0=
EXTT1=
EXTT2=
EXTT3=
EXTT4=
EXTT5=
EXTT6=
EXTT7=
EXTT8=
EXTT9=
EXTT10=
EXTT11=
EXTT12=
EXTT13=
EXTT14=
PLAYORDER=
